<mxfile host="65bd71144e">
    <diagram id="2XCkPTeXxCZkE2hD_6fR" name="Page-1">
        <mxGraphModel dx="730" dy="714" grid="1" gridSize="10" guides="1" tooltips="1" connect="1" arrows="1" fold="1" page="1" pageScale="1" pageWidth="850" pageHeight="400" math="0" shadow="0">
            <root>
                <mxCell id="0"/>
                <mxCell id="1" parent="0"/>
                <mxCell id="2" value="Node.js Javascript runtime" style="swimlane;whiteSpace=wrap;html=1;" parent="1" vertex="1">
                    <mxGeometry x="40" y="20" width="780" height="360" as="geometry"/>
                </mxCell>
                <mxCell id="3" value="Javascript Engine" style="swimlane;whiteSpace=wrap;html=1;" parent="2" vertex="1">
                    <mxGeometry x="20" y="50" width="420" height="290" as="geometry"/>
                </mxCell>
                <mxCell id="14" value="HEAP" style="rounded=0;whiteSpace=wrap;html=1;" parent="3" vertex="1">
                    <mxGeometry x="20" y="50" width="180" height="220" as="geometry"/>
                </mxCell>
                <mxCell id="15" value="CALL STACK" style="rounded=0;whiteSpace=wrap;html=1;" parent="3" vertex="1">
                    <mxGeometry x="220" y="50" width="180" height="220" as="geometry"/>
                </mxCell>
                <mxCell id="5" value="Callback queue" style="swimlane;whiteSpace=wrap;html=1;" parent="2" vertex="1">
                    <mxGeometry x="460" y="210" width="300" height="130" as="geometry"/>
                </mxCell>
                <mxCell id="10" value="click" style="rounded=0;whiteSpace=wrap;html=1;" parent="5" vertex="1">
                    <mxGeometry x="20" y="50" width="60" height="60" as="geometry"/>
                </mxCell>
                <mxCell id="11" value="timer" style="rounded=0;whiteSpace=wrap;html=1;" parent="5" vertex="1">
                    <mxGeometry x="100" y="50" width="60" height="60" as="geometry"/>
                </mxCell>
                <mxCell id="12" value="data" style="rounded=0;whiteSpace=wrap;html=1;" parent="5" vertex="1">
                    <mxGeometry x="180" y="50" width="60" height="60" as="geometry"/>
                </mxCell>
                <mxCell id="13" value="..." style="rounded=0;whiteSpace=wrap;html=1;" parent="5" vertex="1">
                    <mxGeometry x="250" y="50" width="40" height="60" as="geometry"/>
                </mxCell>
                <mxCell id="16" value="C++ Bindings &amp;amp; Thread pool" style="rounded=0;whiteSpace=wrap;html=1;" parent="2" vertex="1">
                    <mxGeometry x="460" y="50" width="300" height="130" as="geometry"/>
                </mxCell>
            </root>
        </mxGraphModel>
    </diagram>
</mxfile>